<svg xmlns="http://www.w3.org/2000/svg" width="16" height="16" fill="currentColor" viewBox="0 0 16 16">
  <path d="M11.5 6.027a.5.5 0 1 1-1 0 .5.5 0 0 1 1 0zm-1.5 1.5a.5.5 0 1 0 0-1 .5.5 0 0 0 0 1zm2.5-.5a.5.5 0 1 1-1 0 .5.5 0 0 1 1 0zm-1.5 1.5a.5.5 0 1 0 0-1 .5.5 0 0 0 0 1zm-6.5-3h1v1h1v-1h1v-1h-1v-1h-1v1h-1v1z"/>
  <path d="M3.051 3.26a.5.5 0 0 1 .354-.613l1.932-.518a.5.5 0 0 1 .62.39c.655-.079 1.35-.117 2.043-.117s1.388.038 2.043.117a.5.5 0 0 1 .62-.39l1.932.518a.5.5 0 0 1 .354.613l.233 1.415c.092.553-.232 1.054-.78 1.268L12.71 7.06a1.5 1.5 0 0 1-.402 2.87l-1.057.264-.305 1.221a.5.5 0 0 1-.482.343H5.234a.5.5 0 0 1-.482-.343l-.305-1.221-1.057-.264A1.5 1.5 0 0 1 1.5 7.06l-.965-.338c-.548-.214-.872-.715-.78-1.268L3.05 3.26zM4.21 4.755a.5.5 0 0 0-.424.23l-1.112 2.224a.5.5 0 0 0 .21.668l.965.338a.5.5 0 0 0 .58-.189l1.112-2.224a.5.5 0 0 0-.33-.817l-.965-.338zm9.951.23a.5.5 0 0 0-.424-.23l-.965.338a.5.5 0 0 0-.33.817l1.112 2.224a.5.5 0 0 0 .58.189l.965-.338a.5.5 0 0 0 .21-.668l-1.112-2.224z"/>
</svg>
