<svg xmlns="http://www.w3.org/2000/svg" width="16" height="16" fill="currentColor" class="bi bi-joystick" viewBox="0 0 16 16"><path d="M10 2a2 2 0 0 1-1.5 1.937v5.087c.863.083 1.5.377 1.5.726 0 .414-.895.75-2 .75s-2-.336-2-.75c0-.35.637-.643 1.5-.726V3.937A2 2 0 1 1 10 2z"/><path d="M0 9.665v1.717a1 1 0 0 0 .553.894l6.553 3.277a1 1 0 0 0 .894 0l6.553-3.277a1 1 0 0 0 .553-.894V9.665c0-.1-.024-.19-.065-.268a1 1 0 0 0-.885-.446H1.45a1 1 0 0 0-.885.446A.99.99 0 0 0 0 9.665zM4 12.5a1.5 1.5 0 1 1-3 0 1.5 1.5 0 0 1 3 0zm11-1.5a1.5 1.5 0 1 0 0-3 1.5 1.5 0 0 0 0 3z"/></svg>